<mxfile host="app.diagrams.net" agent="Mozilla/5.0 (Windows NT 10.0; Win64; x64) AppleWebKit/537.36 (KHTML, like Gecko) Chrome/130.0.0.0 Safari/537.36" version="24.8.4">
  <diagram name="Pagina-1" id="SzsoPx2sEDiLL_slFgZa">
    <mxGraphModel dx="1467" dy="787" grid="1" gridSize="10" guides="1" tooltips="1" connect="1" arrows="1" fold="1" page="1" pageScale="1" pageWidth="1169" pageHeight="827" math="0" shadow="0">
      <root>
        <mxCell id="0" />
        <mxCell id="1" parent="0" />
        <mxCell id="vrnidKgaA1PuXc4hIUIj-2" value="&lt;font style=&quot;font-size: 19px;&quot;&gt;AUTISTA&lt;/font&gt;" style="rounded=0;whiteSpace=wrap;html=1;" vertex="1" parent="1">
          <mxGeometry x="115" y="201" width="190" height="80" as="geometry" />
        </mxCell>
        <mxCell id="vrnidKgaA1PuXc4hIUIj-3" value="&lt;font style=&quot;font-size: 19px;&quot;&gt;VIAGGIO&lt;/font&gt;" style="rounded=0;whiteSpace=wrap;html=1;" vertex="1" parent="1">
          <mxGeometry x="805" y="201" width="190" height="80" as="geometry" />
        </mxCell>
        <mxCell id="vrnidKgaA1PuXc4hIUIj-4" value="&lt;font style=&quot;font-size: 19px;&quot;&gt;AUTOMEZZO&lt;/font&gt;" style="rounded=0;whiteSpace=wrap;html=1;" vertex="1" parent="1">
          <mxGeometry x="115" y="561" width="190" height="80" as="geometry" />
        </mxCell>
        <mxCell id="vrnidKgaA1PuXc4hIUIj-5" value="&lt;font style=&quot;font-size: 19px;&quot;&gt;CITTA&#39;&lt;/font&gt;" style="rounded=0;whiteSpace=wrap;html=1;" vertex="1" parent="1">
          <mxGeometry x="805" y="561" width="190" height="80" as="geometry" />
        </mxCell>
        <mxCell id="vrnidKgaA1PuXc4hIUIj-6" value="&lt;font style=&quot;font-size: 18px;&quot;&gt;EFFETTUA&lt;/font&gt;" style="rhombus;whiteSpace=wrap;html=1;" vertex="1" parent="1">
          <mxGeometry x="445" y="186" width="220" height="110" as="geometry" />
        </mxCell>
        <mxCell id="vrnidKgaA1PuXc4hIUIj-7" value="&lt;font style=&quot;font-size: 18px;&quot;&gt;GUIDA&lt;/font&gt;" style="rhombus;whiteSpace=wrap;html=1;" vertex="1" parent="1">
          <mxGeometry x="100" y="361" width="220" height="110" as="geometry" />
        </mxCell>
        <mxCell id="vrnidKgaA1PuXc4hIUIj-8" value="&lt;font style=&quot;font-size: 18px;&quot;&gt;PARTE_DA&lt;/font&gt;" style="rhombus;whiteSpace=wrap;html=1;" vertex="1" parent="1">
          <mxGeometry x="625" y="371" width="220" height="110" as="geometry" />
        </mxCell>
        <mxCell id="vrnidKgaA1PuXc4hIUIj-9" value="&lt;font style=&quot;font-size: 18px;&quot;&gt;ARRIVA_&lt;/font&gt;&lt;span style=&quot;font-size: 18px; background-color: initial;&quot;&gt;A&lt;/span&gt;" style="rhombus;whiteSpace=wrap;html=1;" vertex="1" parent="1">
          <mxGeometry x="895" y="371" width="220" height="110" as="geometry" />
        </mxCell>
        <mxCell id="vrnidKgaA1PuXc4hIUIj-10" value="" style="endArrow=none;html=1;rounded=0;entryX=0.369;entryY=0.996;entryDx=0;entryDy=0;entryPerimeter=0;exitX=0.5;exitY=0;exitDx=0;exitDy=0;" edge="1" parent="1" source="vrnidKgaA1PuXc4hIUIj-8" target="vrnidKgaA1PuXc4hIUIj-3">
          <mxGeometry width="50" height="50" relative="1" as="geometry">
            <mxPoint x="565" y="461" as="sourcePoint" />
            <mxPoint x="615" y="411" as="targetPoint" />
            <Array as="points">
              <mxPoint x="735" y="321" />
              <mxPoint x="875" y="321" />
            </Array>
          </mxGeometry>
        </mxCell>
        <mxCell id="vrnidKgaA1PuXc4hIUIj-11" value="" style="endArrow=none;html=1;rounded=0;entryX=0.369;entryY=0.996;entryDx=0;entryDy=0;entryPerimeter=0;exitX=0.5;exitY=0;exitDx=0;exitDy=0;" edge="1" parent="1" source="vrnidKgaA1PuXc4hIUIj-9">
          <mxGeometry width="50" height="50" relative="1" as="geometry">
            <mxPoint x="775" y="371" as="sourcePoint" />
            <mxPoint x="915" y="281" as="targetPoint" />
            <Array as="points">
              <mxPoint x="1005" y="321" />
              <mxPoint x="915" y="321" />
            </Array>
          </mxGeometry>
        </mxCell>
        <mxCell id="vrnidKgaA1PuXc4hIUIj-12" value="" style="endArrow=none;html=1;rounded=0;exitX=0.5;exitY=1;exitDx=0;exitDy=0;" edge="1" parent="1" source="vrnidKgaA1PuXc4hIUIj-8">
          <mxGeometry width="50" height="50" relative="1" as="geometry">
            <mxPoint x="995" y="541" as="sourcePoint" />
            <mxPoint x="875" y="561" as="targetPoint" />
            <Array as="points">
              <mxPoint x="735" y="521" />
              <mxPoint x="875" y="521" />
            </Array>
          </mxGeometry>
        </mxCell>
        <mxCell id="vrnidKgaA1PuXc4hIUIj-13" value="" style="endArrow=none;html=1;rounded=0;entryX=0.5;entryY=1;entryDx=0;entryDy=0;" edge="1" parent="1" target="vrnidKgaA1PuXc4hIUIj-9">
          <mxGeometry width="50" height="50" relative="1" as="geometry">
            <mxPoint x="915" y="561" as="sourcePoint" />
            <mxPoint x="955" y="521" as="targetPoint" />
            <Array as="points">
              <mxPoint x="915" y="521" />
              <mxPoint x="1005" y="521" />
            </Array>
          </mxGeometry>
        </mxCell>
        <mxCell id="vrnidKgaA1PuXc4hIUIj-14" value="" style="endArrow=none;html=1;rounded=0;exitX=1;exitY=0.5;exitDx=0;exitDy=0;entryX=0;entryY=0.5;entryDx=0;entryDy=0;" edge="1" parent="1" source="vrnidKgaA1PuXc4hIUIj-2" target="vrnidKgaA1PuXc4hIUIj-6">
          <mxGeometry width="50" height="50" relative="1" as="geometry">
            <mxPoint x="605" y="421" as="sourcePoint" />
            <mxPoint x="655" y="371" as="targetPoint" />
          </mxGeometry>
        </mxCell>
        <mxCell id="vrnidKgaA1PuXc4hIUIj-15" value="" style="endArrow=none;html=1;rounded=0;exitX=1;exitY=0.5;exitDx=0;exitDy=0;entryX=0;entryY=0.5;entryDx=0;entryDy=0;" edge="1" parent="1" source="vrnidKgaA1PuXc4hIUIj-6" target="vrnidKgaA1PuXc4hIUIj-3">
          <mxGeometry width="50" height="50" relative="1" as="geometry">
            <mxPoint x="605" y="421" as="sourcePoint" />
            <mxPoint x="655" y="371" as="targetPoint" />
          </mxGeometry>
        </mxCell>
        <mxCell id="vrnidKgaA1PuXc4hIUIj-16" value="" style="endArrow=none;html=1;rounded=0;exitX=0.5;exitY=1;exitDx=0;exitDy=0;entryX=0.5;entryY=0;entryDx=0;entryDy=0;" edge="1" parent="1" source="vrnidKgaA1PuXc4hIUIj-2" target="vrnidKgaA1PuXc4hIUIj-7">
          <mxGeometry width="50" height="50" relative="1" as="geometry">
            <mxPoint x="605" y="421" as="sourcePoint" />
            <mxPoint x="655" y="371" as="targetPoint" />
          </mxGeometry>
        </mxCell>
        <mxCell id="vrnidKgaA1PuXc4hIUIj-17" value="" style="endArrow=none;html=1;rounded=0;exitX=0.5;exitY=1;exitDx=0;exitDy=0;entryX=0.5;entryY=0;entryDx=0;entryDy=0;" edge="1" parent="1" source="vrnidKgaA1PuXc4hIUIj-7" target="vrnidKgaA1PuXc4hIUIj-4">
          <mxGeometry width="50" height="50" relative="1" as="geometry">
            <mxPoint x="605" y="421" as="sourcePoint" />
            <mxPoint x="655" y="371" as="targetPoint" />
          </mxGeometry>
        </mxCell>
        <mxCell id="vrnidKgaA1PuXc4hIUIj-18" value="" style="endArrow=none;html=1;rounded=0;" edge="1" parent="1">
          <mxGeometry width="50" height="50" relative="1" as="geometry">
            <mxPoint x="140" y="200" as="sourcePoint" />
            <mxPoint x="140" y="140" as="targetPoint" />
          </mxGeometry>
        </mxCell>
        <mxCell id="vrnidKgaA1PuXc4hIUIj-19" value="" style="ellipse;whiteSpace=wrap;html=1;fillColor=#191919;" vertex="1" parent="1">
          <mxGeometry x="135" y="131" width="10" height="10" as="geometry" />
        </mxCell>
        <mxCell id="vrnidKgaA1PuXc4hIUIj-20" value="&lt;font style=&quot;font-size: 14px;&quot;&gt;codice fiscale&lt;/font&gt;" style="text;html=1;align=center;verticalAlign=middle;resizable=0;points=[];autosize=1;strokeColor=none;fillColor=none;" vertex="1" parent="1">
          <mxGeometry x="79" y="102" width="110" height="30" as="geometry" />
        </mxCell>
        <mxCell id="vrnidKgaA1PuXc4hIUIj-21" value="" style="endArrow=none;html=1;rounded=0;" edge="1" parent="1">
          <mxGeometry width="50" height="50" relative="1" as="geometry">
            <mxPoint x="215" y="201" as="sourcePoint" />
            <mxPoint x="215" y="141" as="targetPoint" />
          </mxGeometry>
        </mxCell>
        <mxCell id="vrnidKgaA1PuXc4hIUIj-22" value="" style="ellipse;whiteSpace=wrap;html=1;fillColor=#FFFFFF;" vertex="1" parent="1">
          <mxGeometry x="210" y="132" width="10" height="10" as="geometry" />
        </mxCell>
        <mxCell id="vrnidKgaA1PuXc4hIUIj-23" value="&lt;font style=&quot;font-size: 14px;&quot;&gt;nome&lt;/font&gt;" style="text;html=1;align=center;verticalAlign=middle;resizable=0;points=[];autosize=1;strokeColor=none;fillColor=none;" vertex="1" parent="1">
          <mxGeometry x="186" y="103" width="60" height="30" as="geometry" />
        </mxCell>
        <mxCell id="vrnidKgaA1PuXc4hIUIj-24" value="" style="endArrow=none;html=1;rounded=0;" edge="1" parent="1">
          <mxGeometry width="50" height="50" relative="1" as="geometry">
            <mxPoint x="274" y="201" as="sourcePoint" />
            <mxPoint x="274" y="141" as="targetPoint" />
          </mxGeometry>
        </mxCell>
        <mxCell id="vrnidKgaA1PuXc4hIUIj-25" value="" style="ellipse;whiteSpace=wrap;html=1;fillColor=#FFFFFF;" vertex="1" parent="1">
          <mxGeometry x="269" y="132" width="10" height="10" as="geometry" />
        </mxCell>
        <mxCell id="vrnidKgaA1PuXc4hIUIj-26" value="&lt;font style=&quot;font-size: 14px;&quot;&gt;cognome&lt;/font&gt;" style="text;html=1;align=center;verticalAlign=middle;resizable=0;points=[];autosize=1;strokeColor=none;fillColor=none;" vertex="1" parent="1">
          <mxGeometry x="235" y="103" width="80" height="30" as="geometry" />
        </mxCell>
        <mxCell id="vrnidKgaA1PuXc4hIUIj-27" value="" style="endArrow=none;html=1;rounded=0;" edge="1" parent="1">
          <mxGeometry width="50" height="50" relative="1" as="geometry">
            <mxPoint x="831" y="201" as="sourcePoint" />
            <mxPoint x="831" y="141" as="targetPoint" />
          </mxGeometry>
        </mxCell>
        <mxCell id="vrnidKgaA1PuXc4hIUIj-28" value="" style="ellipse;whiteSpace=wrap;html=1;fillColor=#191919;" vertex="1" parent="1">
          <mxGeometry x="826" y="132" width="10" height="10" as="geometry" />
        </mxCell>
        <mxCell id="vrnidKgaA1PuXc4hIUIj-29" value="&lt;font style=&quot;font-size: 14px;&quot;&gt;ID&lt;/font&gt;" style="text;html=1;align=center;verticalAlign=middle;resizable=0;points=[];autosize=1;strokeColor=none;fillColor=none;" vertex="1" parent="1">
          <mxGeometry x="811" y="105" width="40" height="30" as="geometry" />
        </mxCell>
        <mxCell id="vrnidKgaA1PuXc4hIUIj-30" value="" style="endArrow=none;html=1;rounded=0;" edge="1" parent="1">
          <mxGeometry width="50" height="50" relative="1" as="geometry">
            <mxPoint x="906" y="202" as="sourcePoint" />
            <mxPoint x="906" y="142" as="targetPoint" />
          </mxGeometry>
        </mxCell>
        <mxCell id="vrnidKgaA1PuXc4hIUIj-31" value="" style="ellipse;whiteSpace=wrap;html=1;fillColor=#FFFFFF;" vertex="1" parent="1">
          <mxGeometry x="901" y="133" width="10" height="10" as="geometry" />
        </mxCell>
        <mxCell id="vrnidKgaA1PuXc4hIUIj-32" value="&lt;font style=&quot;font-size: 14px;&quot;&gt;km&lt;/font&gt;" style="text;html=1;align=center;verticalAlign=middle;resizable=0;points=[];autosize=1;strokeColor=none;fillColor=none;" vertex="1" parent="1">
          <mxGeometry x="887" y="104" width="40" height="30" as="geometry" />
        </mxCell>
        <mxCell id="vrnidKgaA1PuXc4hIUIj-33" value="" style="endArrow=none;html=1;rounded=0;" edge="1" parent="1">
          <mxGeometry width="50" height="50" relative="1" as="geometry">
            <mxPoint x="965" y="202" as="sourcePoint" />
            <mxPoint x="965" y="142" as="targetPoint" />
          </mxGeometry>
        </mxCell>
        <mxCell id="vrnidKgaA1PuXc4hIUIj-34" value="" style="ellipse;whiteSpace=wrap;html=1;fillColor=#FFFFFF;" vertex="1" parent="1">
          <mxGeometry x="960" y="133" width="10" height="10" as="geometry" />
        </mxCell>
        <mxCell id="vrnidKgaA1PuXc4hIUIj-35" value="&lt;font style=&quot;font-size: 14px;&quot;&gt;durata&lt;/font&gt;" style="text;html=1;align=center;verticalAlign=middle;resizable=0;points=[];autosize=1;strokeColor=none;fillColor=none;" vertex="1" parent="1">
          <mxGeometry x="936" y="104" width="60" height="30" as="geometry" />
        </mxCell>
        <mxCell id="vrnidKgaA1PuXc4hIUIj-45" value="" style="endArrow=none;html=1;rounded=0;exitX=0.179;exitY=1.003;exitDx=0;exitDy=0;exitPerimeter=0;" edge="1" parent="1" source="vrnidKgaA1PuXc4hIUIj-4">
          <mxGeometry width="50" height="50" relative="1" as="geometry">
            <mxPoint x="270" y="710" as="sourcePoint" />
            <mxPoint x="149" y="700" as="targetPoint" />
          </mxGeometry>
        </mxCell>
        <mxCell id="vrnidKgaA1PuXc4hIUIj-46" value="" style="ellipse;whiteSpace=wrap;html=1;fillColor=#000000;" vertex="1" parent="1">
          <mxGeometry x="144" y="700" width="10" height="10" as="geometry" />
        </mxCell>
        <mxCell id="vrnidKgaA1PuXc4hIUIj-47" value="" style="endArrow=none;html=1;rounded=0;exitX=0.179;exitY=1.003;exitDx=0;exitDy=0;exitPerimeter=0;" edge="1" parent="1">
          <mxGeometry width="50" height="50" relative="1" as="geometry">
            <mxPoint x="210" y="641" as="sourcePoint" />
            <mxPoint x="210" y="700" as="targetPoint" />
          </mxGeometry>
        </mxCell>
        <mxCell id="vrnidKgaA1PuXc4hIUIj-48" value="" style="ellipse;whiteSpace=wrap;html=1;" vertex="1" parent="1">
          <mxGeometry x="205" y="700" width="10" height="10" as="geometry" />
        </mxCell>
        <mxCell id="vrnidKgaA1PuXc4hIUIj-49" value="" style="endArrow=none;html=1;rounded=0;exitX=0.179;exitY=1.003;exitDx=0;exitDy=0;exitPerimeter=0;" edge="1" parent="1">
          <mxGeometry width="50" height="50" relative="1" as="geometry">
            <mxPoint x="275" y="641" as="sourcePoint" />
            <mxPoint x="275" y="700" as="targetPoint" />
          </mxGeometry>
        </mxCell>
        <mxCell id="vrnidKgaA1PuXc4hIUIj-50" value="" style="ellipse;whiteSpace=wrap;html=1;" vertex="1" parent="1">
          <mxGeometry x="270" y="700" width="10" height="10" as="geometry" />
        </mxCell>
        <mxCell id="vrnidKgaA1PuXc4hIUIj-51" value="" style="endArrow=none;html=1;rounded=0;exitX=0.179;exitY=1.003;exitDx=0;exitDy=0;exitPerimeter=0;" edge="1" parent="1">
          <mxGeometry width="50" height="50" relative="1" as="geometry">
            <mxPoint x="831" y="641" as="sourcePoint" />
            <mxPoint x="831" y="700" as="targetPoint" />
          </mxGeometry>
        </mxCell>
        <mxCell id="vrnidKgaA1PuXc4hIUIj-52" value="" style="ellipse;whiteSpace=wrap;html=1;fillColor=#191919;" vertex="1" parent="1">
          <mxGeometry x="826" y="700" width="10" height="10" as="geometry" />
        </mxCell>
        <mxCell id="vrnidKgaA1PuXc4hIUIj-53" value="" style="endArrow=none;html=1;rounded=0;exitX=0.179;exitY=1.003;exitDx=0;exitDy=0;exitPerimeter=0;" edge="1" parent="1">
          <mxGeometry width="50" height="50" relative="1" as="geometry">
            <mxPoint x="892" y="641" as="sourcePoint" />
            <mxPoint x="892" y="700" as="targetPoint" />
          </mxGeometry>
        </mxCell>
        <mxCell id="vrnidKgaA1PuXc4hIUIj-54" value="" style="ellipse;whiteSpace=wrap;html=1;" vertex="1" parent="1">
          <mxGeometry x="887" y="700" width="10" height="10" as="geometry" />
        </mxCell>
        <mxCell id="vrnidKgaA1PuXc4hIUIj-55" value="" style="endArrow=none;html=1;rounded=0;exitX=0.179;exitY=1.003;exitDx=0;exitDy=0;exitPerimeter=0;" edge="1" parent="1">
          <mxGeometry width="50" height="50" relative="1" as="geometry">
            <mxPoint x="957" y="641" as="sourcePoint" />
            <mxPoint x="957" y="700" as="targetPoint" />
          </mxGeometry>
        </mxCell>
        <mxCell id="vrnidKgaA1PuXc4hIUIj-56" value="" style="ellipse;whiteSpace=wrap;html=1;" vertex="1" parent="1">
          <mxGeometry x="952" y="700" width="10" height="10" as="geometry" />
        </mxCell>
        <mxCell id="vrnidKgaA1PuXc4hIUIj-57" value="&lt;font style=&quot;font-size: 14px;&quot;&gt;cap&lt;/font&gt;" style="text;html=1;align=center;verticalAlign=middle;resizable=0;points=[];autosize=1;strokeColor=none;fillColor=none;" vertex="1" parent="1">
          <mxGeometry x="805" y="707" width="50" height="30" as="geometry" />
        </mxCell>
        <mxCell id="vrnidKgaA1PuXc4hIUIj-58" value="&lt;font style=&quot;font-size: 14px;&quot;&gt;intensità traffico&lt;/font&gt;" style="text;html=1;align=center;verticalAlign=middle;resizable=0;points=[];autosize=1;strokeColor=none;fillColor=none;" vertex="1" parent="1">
          <mxGeometry x="929" y="709" width="120" height="30" as="geometry" />
        </mxCell>
        <mxCell id="vrnidKgaA1PuXc4hIUIj-59" value="&lt;font style=&quot;font-size: 14px;&quot;&gt;dimensione&lt;/font&gt;" style="text;html=1;align=center;verticalAlign=middle;resizable=0;points=[];autosize=1;strokeColor=none;fillColor=none;" vertex="1" parent="1">
          <mxGeometry x="843" y="708" width="100" height="30" as="geometry" />
        </mxCell>
        <mxCell id="vrnidKgaA1PuXc4hIUIj-60" value="&lt;font style=&quot;font-size: 14px;&quot;&gt;targa&lt;/font&gt;" style="text;html=1;align=center;verticalAlign=middle;resizable=0;points=[];autosize=1;strokeColor=none;fillColor=none;" vertex="1" parent="1">
          <mxGeometry x="118" y="706" width="60" height="30" as="geometry" />
        </mxCell>
        <mxCell id="vrnidKgaA1PuXc4hIUIj-61" value="&lt;font style=&quot;font-size: 14px;&quot;&gt;km percorsi&lt;/font&gt;" style="text;html=1;align=center;verticalAlign=middle;resizable=0;points=[];autosize=1;strokeColor=none;fillColor=none;" vertex="1" parent="1">
          <mxGeometry x="162" y="707" width="100" height="30" as="geometry" />
        </mxCell>
        <mxCell id="vrnidKgaA1PuXc4hIUIj-62" value="&lt;font style=&quot;font-size: 14px;&quot;&gt;descrizione carico&lt;/font&gt;" style="text;html=1;align=center;verticalAlign=middle;resizable=0;points=[];autosize=1;strokeColor=none;fillColor=none;" vertex="1" parent="1">
          <mxGeometry x="246" y="707" width="140" height="30" as="geometry" />
        </mxCell>
        <mxCell id="vrnidKgaA1PuXc4hIUIj-63" value="&lt;font style=&quot;font-size: 16px;&quot;&gt;&lt;b&gt;(1,N)&lt;/b&gt;&lt;/font&gt;" style="text;html=1;align=center;verticalAlign=middle;resizable=0;points=[];autosize=1;strokeColor=none;fillColor=none;" vertex="1" parent="1">
          <mxGeometry x="729" y="209" width="60" height="30" as="geometry" />
        </mxCell>
        <mxCell id="vrnidKgaA1PuXc4hIUIj-64" value="&lt;font style=&quot;font-size: 16px;&quot;&gt;&lt;b&gt;(1,N)&lt;/b&gt;&lt;/font&gt;" style="text;html=1;align=center;verticalAlign=middle;resizable=0;points=[];autosize=1;strokeColor=none;fillColor=none;" vertex="1" parent="1">
          <mxGeometry x="320" y="209" width="60" height="30" as="geometry" />
        </mxCell>
        <mxCell id="vrnidKgaA1PuXc4hIUIj-66" value="&lt;font style=&quot;font-size: 16px;&quot;&gt;&lt;b&gt;(1,1)&lt;/b&gt;&lt;/font&gt;" style="text;html=1;align=center;verticalAlign=middle;resizable=0;points=[];autosize=1;strokeColor=none;fillColor=none;" vertex="1" parent="1">
          <mxGeometry x="205" y="520" width="60" height="30" as="geometry" />
        </mxCell>
        <mxCell id="vrnidKgaA1PuXc4hIUIj-67" value="&lt;font style=&quot;font-size: 16px;&quot;&gt;&lt;b&gt;(1,2)&lt;/b&gt;&lt;/font&gt;" style="text;html=1;align=center;verticalAlign=middle;resizable=0;points=[];autosize=1;strokeColor=none;fillColor=none;" vertex="1" parent="1">
          <mxGeometry x="204" y="286" width="60" height="30" as="geometry" />
        </mxCell>
        <mxCell id="vrnidKgaA1PuXc4hIUIj-68" value="&lt;font style=&quot;font-size: 16px;&quot;&gt;&lt;b&gt;(1,1)&lt;/b&gt;&lt;/font&gt;" style="text;html=1;align=center;verticalAlign=middle;resizable=0;points=[];autosize=1;strokeColor=none;fillColor=none;" vertex="1" parent="1">
          <mxGeometry x="799" y="490" width="60" height="30" as="geometry" />
        </mxCell>
        <mxCell id="vrnidKgaA1PuXc4hIUIj-70" value="&lt;font style=&quot;font-size: 16px;&quot;&gt;&lt;b&gt;(1,1)&lt;/b&gt;&lt;/font&gt;" style="text;html=1;align=center;verticalAlign=middle;resizable=0;points=[];autosize=1;strokeColor=none;fillColor=none;" vertex="1" parent="1">
          <mxGeometry x="943" y="490" width="60" height="30" as="geometry" />
        </mxCell>
        <mxCell id="vrnidKgaA1PuXc4hIUIj-72" value="&lt;font style=&quot;font-size: 16px;&quot;&gt;&lt;b&gt;(1,N)&lt;/b&gt;&lt;/font&gt;" style="text;html=1;align=center;verticalAlign=middle;resizable=0;points=[];autosize=1;strokeColor=none;fillColor=none;" vertex="1" parent="1">
          <mxGeometry x="805" y="294" width="60" height="30" as="geometry" />
        </mxCell>
        <mxCell id="vrnidKgaA1PuXc4hIUIj-73" value="&lt;font style=&quot;font-size: 16px;&quot;&gt;&lt;b&gt;(1,N)&lt;/b&gt;&lt;/font&gt;" style="text;html=1;align=center;verticalAlign=middle;resizable=0;points=[];autosize=1;strokeColor=none;fillColor=none;" vertex="1" parent="1">
          <mxGeometry x="934" y="294" width="60" height="30" as="geometry" />
        </mxCell>
      </root>
    </mxGraphModel>
  </diagram>
</mxfile>
